<svg id="Layer_1" data-name="Layer 1" xmlns="http://www.w3.org/2000/svg" xmlns:xlink="http://www.w3.org/1999/xlink" viewBox="0 0 1920 1080"><defs><style>.cls-1{opacity:0.2;}.cls-2,.cls-4{fill:#fff;}.cls-10,.cls-20,.cls-3{fill:#f7931e;}.cls-4{opacity:0.88;}.cls-5{fill:url(#linear-gradient);}.cls-6{fill:url(#linear-gradient-2);}.cls-7{fill:url(#linear-gradient-3);}.cls-8{fill:url(#linear-gradient-4);}.cls-9{fill:#0067f4;}.cls-10{opacity:0.12;}.cls-11{fill:url(#linear-gradient-5);}.cls-12{fill:url(#linear-gradient-6);}.cls-13{fill:url(#linear-gradient-7);}.cls-14{fill:url(#linear-gradient-8);}.cls-15{fill:url(#linear-gradient-9);}.cls-16{fill:url(#linear-gradient-10);}.cls-17{fill:url(#linear-gradient-11);}.cls-18{fill:url(#linear-gradient-12);}.cls-19{fill:url(#linear-gradient-13);}.cls-20{opacity:0.82;}.cls-21{fill:none;}.cls-21,.cls-22{stroke:#1b1464;stroke-miterlimit:10;stroke-width:9px;}.cls-23{opacity:0.62;fill:url(#linear-gradient-14);}</style><linearGradient id="linear-gradient" x1="776.39" y1="659.53" x2="1016.89" y2="552.48" gradientUnits="userSpaceOnUse"><stop offset="0" stop-color="#0062b5"/><stop offset="0.13" stop-color="#005ac0"/><stop offset="0.71" stop-color="#0039ed"/><stop offset="1" stop-color="#002cff"/></linearGradient><linearGradient id="linear-gradient-2" x1="848.82" y1="673.34" x2="1067.52" y2="509.78" gradientUnits="userSpaceOnUse"><stop offset="0" stop-color="#0076ff"/><stop offset="0.29" stop-color="#005ee0"/><stop offset="0.76" stop-color="#003ab3"/><stop offset="1" stop-color="#002ca1"/></linearGradient><linearGradient id="linear-gradient-3" x1="471.3" y1="594.69" x2="725.48" y2="594.69" xlink:href="#linear-gradient-2"/><linearGradient id="linear-gradient-4" x1="1102.52" y1="594.69" x2="1356.7" y2="594.69" xlink:href="#linear-gradient-2"/><linearGradient id="linear-gradient-5" x1="805" y1="107.5" x2="1115" y2="107.5" xlink:href="#linear-gradient-2"/><linearGradient id="linear-gradient-6" x1="806.08" y1="869.11" x2="838.59" y2="869.11" gradientUnits="userSpaceOnUse"><stop offset="0" stop-color="#0076ff"/><stop offset="0" stop-color="#005ee0"/><stop offset="0" stop-color="#003ab3"/><stop offset="0" stop-color="#002ca1"/></linearGradient><linearGradient id="linear-gradient-7" x1="844.83" y1="869.12" x2="881.63" y2="869.12" xlink:href="#linear-gradient-6"/><linearGradient id="linear-gradient-8" x1="887.87" y1="869.11" x2="930.67" y2="869.11" xlink:href="#linear-gradient-6"/><linearGradient id="linear-gradient-9" x1="939.21" y1="869.11" x2="961.74" y2="869.11" xlink:href="#linear-gradient-6"/><linearGradient id="linear-gradient-10" x1="982.57" y1="869.11" x2="1010.02" y2="869.11" xlink:href="#linear-gradient-6"/><linearGradient id="linear-gradient-11" x1="1011.49" y1="869.11" x2="1048.56" y2="869.11" xlink:href="#linear-gradient-6"/><linearGradient id="linear-gradient-12" x1="1050.89" y1="869.12" x2="1084.08" y2="869.12" xlink:href="#linear-gradient-6"/><linearGradient id="linear-gradient-13" x1="1091.39" y1="869.11" x2="1113.92" y2="869.11" xlink:href="#linear-gradient-6"/><linearGradient id="linear-gradient-14" x1="414.25" y1="941" x2="1505.75" y2="941" xlink:href="#linear-gradient"/></defs><rect class="cls-1" x="414.25" y="936" width="1091.5" height="10"/><path class="cls-1" d="M-8,0V1092H1928V0ZM1549,898.71a55.45,55.45,0,0,1-55.49,55.49h-1067A55.45,55.45,0,0,1,371,898.71V784.2H598.75a8.72,8.72,0,0,0,8.06,5.38h65.88a8.7,8.7,0,0,0,8-5.38H866.57c12.71,3.33,30.21,5.38,49.55,5.38s36.86-2.06,49.57-5.38H1230a8.72,8.72,0,0,0,8.06,5.38h65.88a8.7,8.7,0,0,0,8-5.38h237Z"/><path class="cls-2" d="M725.48,603v42.33a8.71,8.71,0,0,1-8.72,8.72H690.13a8.72,8.72,0,0,0-8.72,8.72v100.9a8.74,8.74,0,0,1-8.72,8.72H606.81a8.7,8.7,0,0,1-8.72-8.72V662.76a8.73,8.73,0,0,0-8.72-8.72H480a8.72,8.72,0,0,1-8.72-8.72V594.27h1.08l-.51-.46L606.26,449.09,632.39,421l0,0a8.62,8.62,0,0,1,6.36-3l33.68-.88a8.73,8.73,0,0,1,8.95,8.72V585.55a8.71,8.71,0,0,0,8.72,8.72h26.63A8.72,8.72,0,0,1,725.48,603Z"/><path class="cls-2" d="M1078.41,607.84c0,48.27-18.66,91.59-48.24,121.16a138.79,138.79,0,0,1-49.31,32.1c-3.58,2.22-8.76,4.22-15.17,5.9-12.71,3.32-30.23,5.38-49.57,5.38s-36.84-2-49.55-5.38a80.78,80.78,0,0,1-7.89-2.45c-22.57-6.27-43-18.66-59.9-35.55-29.6-29.56-48.26-72.88-48.26-121.16,0-79.63,50.77-145.78,117.55-158.94,12.78-3.46,30.64-5.6,50.41-5.6,32,0,59,5.62,67.5,13.32C1040,479.47,1078.41,538.55,1078.41,607.84Z"/><path class="cls-2" d="M1356.7,603v42.33A8.72,8.72,0,0,1,1348,654h-26.63a8.72,8.72,0,0,0-8.72,8.72v100.9a8.72,8.72,0,0,1-8.72,8.72H1238a8.71,8.71,0,0,1-8.72-8.72V662.76a8.73,8.73,0,0,0-8.72-8.72H1111.24a8.71,8.71,0,0,1-8.72-8.72V594.27h1.07l-.5-.46L1263.61,421l0,0a8.62,8.62,0,0,1,6.36-3l31.63-.83,2-.05a8.73,8.73,0,0,1,9,8.72V585.55a8.71,8.71,0,0,0,8.72,8.72H1348A8.73,8.73,0,0,1,1356.7,603Z"/><polygon class="cls-3" points="1115 192 805 192 812.22 182.54 829.26 162 1091.69 162 1099.05 170.95 1115 192"/><path class="cls-4" d="M1493.51,355h-1067A55.47,55.47,0,0,0,371,410.49V767H598.75a8.65,8.65,0,0,1-.66-3.34V662.76a8.73,8.73,0,0,0-8.72-8.72H480a8.72,8.72,0,0,1-8.72-8.72V594.27h1.08l-.51-.46L606.26,449.09,632.39,421l0,0a8.62,8.62,0,0,1,6.36-3l33.68-.88a8.73,8.73,0,0,1,8.95,8.72V585.55a8.71,8.71,0,0,0,8.72,8.72h26.63a8.72,8.72,0,0,1,8.72,8.72v42.33a8.71,8.71,0,0,1-8.72,8.72H690.13a8.72,8.72,0,0,0-8.72,8.72v100.9a8.66,8.66,0,0,1-.67,3.34H866.57a80.78,80.78,0,0,1-7.89-2.45c-22.57-6.27-43-18.66-59.9-35.55-29.6-29.56-48.26-72.88-48.26-121.16,0-79.63,50.77-145.78,117.55-158.94,12.78-3.46,30.64-5.6,50.41-5.6,32,0,59,5.62,67.5,13.32,54,22.85,92.43,81.93,92.43,151.22,0,48.27-18.66,91.59-48.24,121.16a138.79,138.79,0,0,1-49.31,32.1c-3.58,2.22-8.76,4.22-15.17,5.9H1230a8.65,8.65,0,0,1-.66-3.34V662.76a8.73,8.73,0,0,0-8.72-8.72H1111.24a8.71,8.71,0,0,1-8.72-8.72V594.27h1.07l-.5-.46L1263.61,421l0,0a8.62,8.62,0,0,1,6.36-3l15.65-.42,16-.41,2-.05a8.73,8.73,0,0,1,9,8.72V585.55a8.71,8.71,0,0,0,8.72,8.72H1348a8.73,8.73,0,0,1,8.72,8.72v42.33A8.72,8.72,0,0,1,1348,654h-26.63a8.72,8.72,0,0,0-8.72,8.72v100.9A8.66,8.66,0,0,1,1312,767h237V410.49A55.49,55.49,0,0,0,1493.51,355Z"/><path class="cls-4" d="M414.25,936v10h1091.5V936Z"/><path class="cls-4" d="M1312,784.2a8.7,8.7,0,0,1-8,5.38H1238a8.72,8.72,0,0,1-8.06-5.38H965.69c-12.71,3.32-30.23,5.38-49.57,5.38s-36.84-2.05-49.55-5.38H680.74a8.7,8.7,0,0,1-8,5.38H606.81a8.72,8.72,0,0,1-8.06-5.38H371V898.71a55.45,55.45,0,0,0,55.49,55.49h1067A55.45,55.45,0,0,0,1549,898.71V784.2ZM1505.75,946H414.25V936h1091.5Z"/><path class="cls-5" d="M1034.54,607.84c0,.48,0,1,0,1.44-.37,47.7-18.95,90.45-48.24,119.72A147,147,0,0,1,971,742.33a131.72,131.72,0,0,1-56.52,24.92,126.69,126.69,0,0,1-55.78-2.7c-22.57-6.27-43-18.66-59.9-35.55-29.6-29.56-48.26-72.88-48.26-121.16,0-79.63,50.77-145.78,117.55-158.94,12.78-3.46,30.64-5.6,50.41-5.6,32,0,59,5.62,67.5,13.32a126.53,126.53,0,0,0-71.52-8.19A131.43,131.43,0,0,0,859.8,472c-39,28.42-64.93,77.9-65.4,134.3,0,.52,0,1,0,1.57s0,1,0,1.57c.74,60.85,44.39,109.91,98.13,109.91h1.27l1.26,0c.28,0,.55,0,.83,0l.81,0h.1c.46,0,.9,0,1.34-.07l1.07-.08.87-.07.94-.08,1.28-.14c.41,0,.82-.09,1.22-.15.92-.11,1.82-.24,2.73-.38l1.22-.21,1.21-.22h0l.86-.16,1-.22c.29,0,.57-.12.86-.18s.52-.11.77-.18l.93-.22,1.28-.32h0l1-.27.87-.24,1.16-.34,1-.31q1.51-.47,3-1l.85-.3c.7-.26,1.41-.52,2.11-.8l1-.38c.65-.27,1.3-.53,1.94-.81,1-.42,1.93-.85,2.88-1.3l.94-.46.95-.47.94-.47c1.24-.65,2.47-1.32,3.69-2l.91-.53,1.18-.71.62-.38c1.34-.83,2.67-1.7,4-2.6.33-.22.64-.44,1-.67,1.08-.76,2.15-1.55,3.2-2.36l.75-.59.92-.73,1-.82,1-.8q1.43-1.2,2.79-2.46c.31-.28.62-.56.92-.85s.6-.56.9-.86.6-.57.89-.87.6-.58.89-.88l.87-.88c.61-.63,1.22-1.27,1.81-1.92s1.08-1.18,1.61-1.78l.69-.8.26-.3c.78-.91,1.55-1.83,2.29-2.77.27-.33.53-.67.79-1,.5-.64,1-1.29,1.49-1.94.77-1.05,1.54-2.11,2.29-3.19.48-.71,1-1.41,1.43-2.13.28-.43.57-.86.85-1.3.64-1,1.27-2,1.88-3.07.23-.37.45-.74.66-1.12s.44-.74.65-1.12l.63-1.14c.17-.31.34-.62.5-.93l.21-.38c.38-.71.76-1.43,1.12-2.15l.58-1.17.57-1.18c.38-.79.75-1.59,1.11-2.39s.66-1.48,1-2.23l.08-.19c.34-.79.66-1.6,1-2.4.17-.43.34-.86.5-1.29s.32-.83.47-1.25l.47-1.26c.15-.41.29-.84.44-1.25s.33-1,.49-1.46c.27-.78.52-1.58.77-2.38l.39-1.29c.25-.81.48-1.63.71-2.46.14-.51.27-1,.41-1.54.22-.85.43-1.7.63-2.56.1-.39.2-.79.28-1.18,0-.14.06-.28.1-.42.17-.76.34-1.53.49-2.31a2.38,2.38,0,0,0,0-.26l.24-1.2c.14-.74.28-1.49.41-2.25.06-.32.11-.64.16-1a126.93,126.93,0,0,0,1.46-13.22c0-.4,0-.81.07-1.22,0-.62.06-1.24.07-1.86s0-1,0-1.43c0-1,0-1.92,0-2.88,0-.48,0-1,0-1.44l0-1.44c0-.48,0-1,0-1.43s0-1.24-.07-1.86c0-.41,0-.82-.07-1.23A126.74,126.74,0,0,0,989,587.23c-.05-.32-.1-.64-.16-1-.13-.76-.27-1.51-.41-2.26l-.24-1.2a2.21,2.21,0,0,0,0-.25c-.15-.78-.32-1.55-.49-2.32,0-.14-.07-.28-.1-.41-.08-.4-.18-.79-.28-1.19-.2-.85-.41-1.71-.63-2.55-.14-.52-.27-1-.41-1.54-.23-.83-.46-1.65-.71-2.47l-.39-1.29c-.25-.8-.5-1.59-.77-2.38-.16-.49-.32-1-.49-1.45s-.29-.84-.44-1.25-.31-.85-.47-1.26-.3-.84-.47-1.25-.33-.87-.5-1.29c-.33-.81-.65-1.61-1-2.41,0-.06-.05-.12-.08-.19-.32-.74-.65-1.49-1-2.22s-.73-1.6-1.11-2.39l-.57-1.18c-.19-.39-.39-.78-.58-1.18-.36-.71-.74-1.43-1.12-2.14l-.21-.39c-.16-.31-.33-.62-.5-.92l-.63-1.14c-.21-.38-.43-.75-.65-1.12s-.43-.76-.66-1.12c-.61-1-1.24-2.06-1.88-3.07-.28-.44-.57-.87-.85-1.3-.47-.72-.95-1.43-1.43-2.13-.75-1.08-1.52-2.14-2.29-3.2-.49-.65-1-1.29-1.49-1.94l-.79-1c-.74-.94-1.51-1.86-2.29-2.77l-.26-.3-.69-.8c-.53-.6-1.06-1.2-1.61-1.78s-1.2-1.29-1.81-1.93l-.87-.87-.89-.89-.89-.87c-.3-.29-.6-.58-.9-.85s-.61-.57-.92-.85c-.91-.84-1.84-1.66-2.79-2.47l-1-.79-1-.83-.92-.72-.75-.59c-1-.81-2.12-1.6-3.2-2.37-.32-.22-.63-.45-1-.67-1.29-.9-2.62-1.76-4-2.59-.2-.14-.41-.26-.62-.39l-1.18-.7c-.3-.19-.61-.36-.91-.54q-1.83-1.05-3.69-2l-.94-.48-.95-.46-.94-.46c-.95-.45-1.91-.88-2.88-1.3-.64-.28-1.29-.55-1.94-.81l-1-.39c-.7-.28-1.41-.54-2.11-.79l-.85-.31c-1-.34-2-.68-3-1-.33-.1-.67-.21-1-.3l-1.16-.34c-.29-.09-.57-.17-.87-.24l-1-.28a87.26,87.26,0,0,1,21.94-2.79c53.36,0,96.77,48.36,98.1,108.61,0,.48,0,.95,0,1.43S1034.54,607.36,1034.54,607.84Z"/><path class="cls-6" d="M1078.41,607.84c0,48.27-18.66,91.59-48.24,121.16a138.79,138.79,0,0,1-49.31,32.1c-3.58,2.22-8.76,4.22-15.17,5.9-12.71,3.32-30.23,5.38-49.57,5.38s-36.84-2-49.55-5.38a80.78,80.78,0,0,1-7.89-2.45q5.19,1.44,10.53,2.45a126.91,126.91,0,0,0,45.25.25l1.38-.25A131.88,131.88,0,0,0,971,742.33,147,147,0,0,0,986.29,729c29.29-29.27,47.87-72,48.24-119.72,0-.48,0-1,0-1.44s0-1,0-1.44,0-.95,0-1.43c-1.33-60.25-44.74-108.61-98.1-108.61a87.26,87.26,0,0,0-21.94,2.79c-43.63,11.32-76.19,55.68-76.19,108.69s32.56,97.37,76.19,108.68h0l-1.28.32-.93.22c-.25.07-.52.12-.77.18s-.57.13-.86.18l-1,.22-.86.16h0l-1.21.22-1.22.21c-.91.14-1.81.27-2.73.38-.4.06-.81.1-1.22.15l-1.28.14-.94.08-.87.07-1.07.08c-.44,0-.88.06-1.34.07h-.1l-.81,0c-.28,0-.55,0-.83,0l-1.26,0h-1.27c-53.74,0-97.39-49.06-98.13-109.91,0-.52,0-1,0-1.57s0-1.05,0-1.57c.47-56.4,26.42-105.88,65.4-134.3a131.43,131.43,0,0,1,54.66-23.54A126.53,126.53,0,0,1,986,456.62C1040,479.47,1078.41,538.55,1078.41,607.84Z"/><path class="cls-7" d="M716.76,594.27H690.13a8.71,8.71,0,0,1-8.72-8.72V425.72a8.73,8.73,0,0,0-8.95-8.72l-33.68.88a8.62,8.62,0,0,0-6.36,3l0,0-26.13,28.14L471.87,593.81l.51.46H471.3v51.05A8.72,8.72,0,0,0,480,654H589.37a8.73,8.73,0,0,1,8.72,8.72v100.9a8.7,8.7,0,0,0,8.72,8.72h65.88a8.74,8.74,0,0,0,8.72-8.72V662.76a8.72,8.72,0,0,1,8.72-8.72h26.63a8.71,8.71,0,0,0,8.72-8.72V603A8.72,8.72,0,0,0,716.76,594.27Zm-118.64-8.72a8.71,8.71,0,0,1-8.75,8.69l-40.94-.16a8.72,8.72,0,0,1-6.23-14.79l41.12-42.46a8.72,8.72,0,0,1,15,6.1Z"/><path class="cls-8" d="M1348,594.27h-26.63a8.71,8.71,0,0,1-8.72-8.72V425.72a8.73,8.73,0,0,0-9-8.72l-2,.05-16,.41-15.65.42a8.62,8.62,0,0,0-6.36,3l0,0L1103.09,593.81l.5.46h-1.07v51.05a8.71,8.71,0,0,0,8.72,8.72h109.35a8.73,8.73,0,0,1,8.72,8.72v100.9a8.7,8.7,0,0,0,8.72,8.72h65.88a8.74,8.74,0,0,0,8.72-8.72V662.76a8.72,8.72,0,0,1,8.72-8.72H1348a8.72,8.72,0,0,0,8.72-8.72V603A8.73,8.73,0,0,0,1348,594.27Zm-118.64-8.72a8.72,8.72,0,0,1-8.75,8.69l-40.95-.16a8.73,8.73,0,0,1-6.23-14.79l41.13-42.46a8.72,8.72,0,0,1,15,6.1Z"/><polygon class="cls-9" points="517.05 311.34 516 312.47 516 310.36 517.05 311.34"/><polygon class="cls-10" points="1550.4 767 363.6 767 371 757.3 391.24 730.78 471.3 625.9 606.26 449.09 678.08 355 857.46 120 1060.37 120 1238.35 355 1285.65 417.46 1312.63 453.08 1489.34 686.41 1549 765.15 1550.4 767"/><rect x="957" y="-91" width="6" height="121"/><circle class="cls-3" cx="960" cy="200.5" r="19.5"/><circle class="cls-3" cx="1430.5" cy="235.5" r="19.5"/><circle class="cls-3" cx="1411.5" cy="310.5" r="19.5"/><circle class="cls-3" cx="1421.5" cy="141.5" r="19.5"/><circle class="cls-3" cx="1524.5" cy="311.5" r="19.5"/><polygon class="cls-11" points="1115 192 805 192 812.22 182.54 934 23 987 23 1099.05 170.95 1115 192"/><circle class="cls-3" cx="1612.5" cy="292.5" r="19.5"/><circle class="cls-3" cx="1524.5" cy="57.5" r="19.5"/><circle class="cls-3" cx="1560.5" cy="192.5" r="19.5"/><circle class="cls-3" cx="1658.5" cy="220.5" r="19.5"/><circle class="cls-3" cx="1490.5" cy="162.5" r="19.5"/><path class="cls-3" d="M1133,869.12c0,1,0,2-.13,3a34,34,0,0,1-33.87,31H821a34,34,0,0,1-34-34,33.22,33.22,0,0,1,.18-3.48h0A34,34,0,0,1,821,835.12h278a34,34,0,0,1,33.75,29.9,5.32,5.32,0,0,1,.06.56A32,32,0,0,1,1133,869.12Z"/><path class="cls-12" d="M838.59,887.89H830.1v-15.3H814.54v15.3h-8.46V850.32h8.46v15H830.1v-15h8.49Z"/><path class="cls-13" d="M863.06,888.55a17.5,17.5,0,0,1-13.15-5.26q-5.08-5.25-5.08-13.68,0-8.91,5.16-14.41t13.67-5.5q8,0,13,5.26t5,13.89q0,8.85-5.15,14.27T863.06,888.55Zm.37-31.57a8.52,8.52,0,0,0-7.08,3.34,14,14,0,0,0-2.62,8.84c0,3.72.88,6.66,2.62,8.83a9,9,0,0,0,13.81.09c1.71-2.1,2.57-5,2.57-8.76q0-5.85-2.49-9.09A8.1,8.1,0,0,0,863.43,857Z"/><path class="cls-14" d="M930.67,887.89h-8.35V865.41q0-3.63.31-8h-.21a39.73,39.73,0,0,1-1.18,5l-8.8,25.54h-6.92l-9-25.28a51.08,51.08,0,0,1-1.17-5.24h-.24q.35,5.55.34,9.75v20.77h-7.62V850.32h12.39l7.67,22.27a30.57,30.57,0,0,1,1.34,5.37h.16a54.82,54.82,0,0,1,1.49-5.42l7.68-22.22h12.07Z"/><path class="cls-15" d="M961.74,887.89H939.21V850.32h21.67v6.89H947.67v8.36H960v6.86H947.67V881h14.07Z"/><path class="cls-16" d="M991,875v12.94h-8.46V850.32h13.25q14.2,0,14.2,12a11.49,11.49,0,0,1-4.07,9.15c-2.72,2.33-6.34,3.5-10.89,3.5Zm0-18.13v11.71h3.33q6.75,0,6.76-5.92t-6.76-5.79Z"/><path class="cls-17" d="M1048.56,887.89h-9.22l-2.68-8.36H1023.3l-2.64,8.36h-9.17l13.67-37.57h10ZM1034.73,873l-4-12.63a17.46,17.46,0,0,1-.63-3.38h-.21a14,14,0,0,1-.65,3.28L1025.11,873Z"/><path class="cls-18" d="M1084.08,885.38q-5.5,3.17-13.67,3.17-9.08,0-14.29-5t-5.23-13.82q0-8.85,5.71-14.43t15.19-5.58a30.89,30.89,0,0,1,10.54,1.65v7.93a21,21,0,0,0-10.64-2.51,11.42,11.42,0,0,0-8.58,3.42,12.55,12.55,0,0,0-3.31,9.13c0,3.86,1,6.84,3,9a10.49,10.49,0,0,0,8,3.17,11.14,11.14,0,0,0,4.82-.87v-7.33h-7.52v-6.76h16Z"/><path class="cls-19" d="M1113.92,887.89h-22.53V850.32h21.66v6.89h-13.2v8.36h12.29v6.86h-12.29V881h14.07Z"/><rect class="cls-20" x="1397.92" y="813.2" width="112" height="112" rx="56" transform="translate(2907.83 1738.41) rotate(180)"/><circle class="cls-21" cx="1453.92" cy="869.2" r="31.59"/><rect class="cls-22" x="1451.98" y="827.73" width="3.88" height="24.94"/><rect class="cls-23" x="414.25" y="936" width="1091.5" height="10"/></svg>