<svg id="Layer_1" data-name="Layer 1" xmlns="http://www.w3.org/2000/svg" xmlns:xlink="http://www.w3.org/1999/xlink" viewBox="0 0 1920 1080"><defs><style>.cls-1{fill:#f7931e;}.cls-2{fill:url(#linear-gradient);}.cls-3{fill:url(#linear-gradient-2);}.cls-4{fill:url(#linear-gradient-3);}.cls-5{fill:url(#linear-gradient-4);}.cls-6{fill:url(#linear-gradient-5);}.cls-7{fill:url(#linear-gradient-6);}.cls-8{fill:url(#linear-gradient-7);}.cls-9{fill:url(#linear-gradient-8);}</style><linearGradient id="linear-gradient" x1="806.08" y1="869.11" x2="838.59" y2="869.11" gradientUnits="userSpaceOnUse"><stop offset="0" stop-color="#0076ff"/><stop offset="0" stop-color="#005ee0"/><stop offset="0" stop-color="#003ab3"/><stop offset="0" stop-color="#002ca1"/></linearGradient><linearGradient id="linear-gradient-2" x1="844.83" y1="869.12" x2="881.63" y2="869.12" xlink:href="#linear-gradient"/><linearGradient id="linear-gradient-3" x1="887.87" y1="869.11" x2="930.67" y2="869.11" xlink:href="#linear-gradient"/><linearGradient id="linear-gradient-4" x1="939.21" y1="869.11" x2="961.74" y2="869.11" xlink:href="#linear-gradient"/><linearGradient id="linear-gradient-5" x1="982.57" y1="869.11" x2="1010.02" y2="869.11" xlink:href="#linear-gradient"/><linearGradient id="linear-gradient-6" x1="1011.49" y1="869.11" x2="1048.56" y2="869.11" xlink:href="#linear-gradient"/><linearGradient id="linear-gradient-7" x1="1050.89" y1="869.12" x2="1084.08" y2="869.12" xlink:href="#linear-gradient"/><linearGradient id="linear-gradient-8" x1="1091.39" y1="869.11" x2="1113.92" y2="869.11" xlink:href="#linear-gradient"/></defs><path class="cls-1" d="M1133,869.12c0,1,0,2-.13,3a34,34,0,0,1-33.87,31H821a34,34,0,0,1-34-34,33.22,33.22,0,0,1,.18-3.48h0A34,34,0,0,1,821,835.12h278a34,34,0,0,1,33.75,29.9,5.32,5.32,0,0,1,.06.56A32,32,0,0,1,1133,869.12Z"/><path class="cls-2" d="M838.59,887.89H830.1v-15.3H814.54v15.3h-8.46V850.32h8.46v15H830.1v-15h8.49Z"/><path class="cls-3" d="M863.06,888.55a17.5,17.5,0,0,1-13.15-5.26q-5.08-5.25-5.08-13.68,0-8.91,5.16-14.41t13.67-5.5q8,0,13,5.26t5,13.89q0,8.85-5.15,14.27T863.06,888.55Zm.37-31.57a8.52,8.52,0,0,0-7.08,3.34,14,14,0,0,0-2.62,8.84c0,3.72.88,6.66,2.62,8.83a9,9,0,0,0,13.81.09c1.71-2.1,2.57-5,2.57-8.76q0-5.85-2.49-9.09A8.1,8.1,0,0,0,863.43,857Z"/><path class="cls-4" d="M930.67,887.89h-8.35V865.41q0-3.63.31-8h-.21a39.73,39.73,0,0,1-1.18,5l-8.8,25.54h-6.92l-9-25.28a51.08,51.08,0,0,1-1.17-5.24h-.24q.35,5.55.34,9.75v20.77h-7.62V850.32h12.39l7.67,22.27a30.57,30.57,0,0,1,1.34,5.37h.16a54.82,54.82,0,0,1,1.49-5.42l7.68-22.22h12.07Z"/><path class="cls-5" d="M961.74,887.89H939.21V850.32h21.67v6.89H947.67v8.36H960v6.86H947.67V881h14.07Z"/><path class="cls-6" d="M991,875v12.94h-8.46V850.32h13.25q14.2,0,14.2,12a11.49,11.49,0,0,1-4.07,9.15c-2.72,2.33-6.34,3.5-10.89,3.5Zm0-18.13v11.71h3.33q6.75,0,6.76-5.92t-6.76-5.79Z"/><path class="cls-7" d="M1048.56,887.89h-9.22l-2.68-8.36H1023.3l-2.64,8.36h-9.17l13.67-37.57h10ZM1034.73,873l-4-12.63a17.46,17.46,0,0,1-.63-3.38h-.21a14,14,0,0,1-.65,3.28L1025.11,873Z"/><path class="cls-8" d="M1084.08,885.38q-5.5,3.17-13.67,3.17-9.08,0-14.29-5t-5.23-13.82q0-8.85,5.71-14.43t15.19-5.58a30.89,30.89,0,0,1,10.54,1.65v7.93a21,21,0,0,0-10.64-2.51,11.42,11.42,0,0,0-8.58,3.42,12.55,12.55,0,0,0-3.31,9.13c0,3.86,1,6.84,3,9a10.49,10.49,0,0,0,8,3.17,11.14,11.14,0,0,0,4.82-.87v-7.33h-7.52v-6.76h16Z"/><path class="cls-9" d="M1113.92,887.89h-22.53V850.32h21.66v6.89h-13.2v8.36h12.29v6.86h-12.29V881h14.07Z"/></svg>